<svg width="175" height="57" viewBox="0 0 175 57" fill="none" xmlns="http://www.w3.org/2000/svg">
<rect width="164.175" height="57" fill="#41A58D"/>
<rect x="5.17088" y="2.85001" width="49.1233" height="50.73" fill="white"/>
<g filter="url(#filter0_b)">
<rect x="19.3908" y="11.97" width="21.3299" height="33.06" rx="10.6649" fill="#276955"/>
</g>
<g filter="url(#filter1_b)">
<rect x="21.3299" y="18.81" width="16.8053" height="29.07" rx="8.40267" fill="white"/>
</g>
<rect x="28.4398" y="23.94" width="3.2318" height="18.24" fill="#276955"/>
<path d="M64.2243 36.8874C64.3083 36.8874 64.3923 36.8034 64.4763 36.6354C64.5603 36.4674 64.6023 36.1914 64.6023 35.8074V27.1674C64.6023 26.7834 64.5603 26.5134 64.4763 26.3574C64.3923 26.1894 64.3083 26.0994 64.2243 26.0874H67.5543C67.5303 26.0874 67.5423 26.1714 67.5903 26.3394C67.6383 26.5074 67.7523 26.7954 67.9323 27.2034C68.0043 27.3594 68.1303 27.6354 68.3103 28.0314C68.5023 28.4274 68.7303 28.9014 68.9943 29.4534C69.2583 29.9934 69.5403 30.5754 69.8403 31.1994C70.1403 31.8234 70.4463 32.4594 70.7583 33.1074C71.0703 33.7434 71.3643 34.3434 71.6403 34.9074H71.6583C71.9463 34.3314 72.2463 33.7254 72.5583 33.0894C72.8703 32.4414 73.1823 31.7994 73.4943 31.1634C73.8063 30.5274 74.0943 29.9394 74.3583 29.3994C74.6223 28.8474 74.8443 28.3794 75.0243 27.9954C75.2163 27.5994 75.3483 27.3234 75.4203 27.1674C75.5883 26.7834 75.6963 26.5074 75.7443 26.3394C75.8043 26.1714 75.8223 26.0874 75.7983 26.0874H79.1103C79.0263 26.0874 78.9423 26.1714 78.8583 26.3394C78.7743 26.5074 78.7323 26.7894 78.7323 27.1854V35.8074C78.7323 36.1914 78.7743 36.4674 78.8583 36.6354C78.9423 36.8034 79.0263 36.8874 79.1103 36.8874H76.3563C76.4403 36.8874 76.5183 36.8034 76.5903 36.6354C76.6743 36.4674 76.7163 36.1914 76.7163 35.8074V28.3554H76.6803C76.3683 28.9794 76.0323 29.6634 75.6723 30.4074C75.3123 31.1394 74.9583 31.8654 74.6103 32.5854C74.2623 33.2934 73.9503 33.9354 73.6743 34.5114C73.4103 35.0754 73.2123 35.5074 73.0803 35.8074C72.9123 36.1794 72.8223 36.4494 72.8103 36.6174C72.8103 36.7854 72.8403 36.8754 72.9003 36.8874H70.3803C70.4403 36.8874 70.4703 36.8094 70.4703 36.6534C70.4703 36.4854 70.3803 36.2034 70.2003 35.8074C70.0923 35.5554 69.9063 35.1534 69.6423 34.6014C69.3783 34.0494 69.0723 33.4134 68.7243 32.6934C68.3883 31.9734 68.0403 31.2354 67.6803 30.4794C67.3203 29.7114 66.9843 29.0034 66.6723 28.3554H66.6183V35.8074C66.6183 36.1914 66.6603 36.4674 66.7443 36.6354C66.8283 36.8034 66.9123 36.8874 66.9963 36.8874H64.2243ZM85.5411 37.0674C84.5931 37.0674 83.8131 36.9594 83.2011 36.7434C82.5891 36.5154 82.1091 36.2034 81.7611 35.8074C81.4131 35.4114 81.1671 34.9494 81.0231 34.4214C80.8911 33.8934 80.8251 33.3174 80.8251 32.6934C80.8251 31.3374 81.2091 30.2634 81.9771 29.4714C82.7571 28.6794 83.9091 28.2834 85.4331 28.2834C86.3211 28.2834 87.0351 28.4034 87.5751 28.6434C88.1271 28.8834 88.5411 29.2014 88.8171 29.5974C89.1051 29.9934 89.2971 30.4254 89.3931 30.8934C89.5011 31.3494 89.5551 31.7994 89.5551 32.2434V33.0894C89.5551 33.0534 89.3871 33.0174 89.0511 32.9814C88.7271 32.9334 88.1751 32.9094 87.3951 32.9094H82.6611C82.6611 33.7974 82.9251 34.4994 83.4531 35.0154C83.9811 35.5314 84.7671 35.7894 85.8111 35.7894C86.7111 35.7894 87.4491 35.6814 88.0251 35.4654C88.6131 35.2374 89.0031 35.0154 89.1951 34.7994V35.1594L89.3751 36.3474C89.1111 36.5034 88.6431 36.6654 87.9711 36.8334C87.3111 36.9894 86.5011 37.0674 85.5411 37.0674ZM83.3811 31.7214H87.7551C87.7551 31.4094 87.6891 31.0854 87.5571 30.7494C87.4251 30.4134 87.1911 30.1314 86.8551 29.9034C86.5191 29.6634 86.0451 29.5434 85.4331 29.5434C84.6531 29.5434 84.0291 29.7294 83.5611 30.1014C83.1051 30.4734 82.8771 30.8934 82.8771 31.3614C82.8771 31.4814 82.9131 31.5714 82.9851 31.6314C83.0571 31.6914 83.1891 31.7214 83.3811 31.7214ZM91.0954 36.8874C91.1794 36.8874 91.2574 36.8034 91.3294 36.6354C91.4134 36.4674 91.4554 36.1914 91.4554 35.8074V29.7234C91.4554 29.3394 91.4134 29.0694 91.3294 28.9134C91.2574 28.7454 91.1794 28.6554 91.0954 28.6434C91.6234 28.6434 92.0794 28.6074 92.4634 28.5354C92.8594 28.4514 93.1354 28.3674 93.2914 28.2834V29.1834L93.2554 29.4894L93.2914 29.5254C93.5674 29.1774 93.9214 28.8834 94.3534 28.6434C94.7974 28.4034 95.3434 28.2834 95.9914 28.2834C96.5554 28.2834 97.0414 28.3674 97.4494 28.5354C97.8694 28.6914 98.1694 28.8534 98.3494 29.0214L97.9894 30.5334V31.0734C97.8334 30.8814 97.6054 30.6834 97.3054 30.4794C97.0174 30.2634 96.6874 30.0834 96.3154 29.9394C95.9434 29.7954 95.5474 29.7234 95.1274 29.7234C94.6474 29.7234 94.2214 29.9154 93.8494 30.2994C93.4774 30.6834 93.2914 31.3194 93.2914 32.2074V35.8074C93.2914 36.1914 93.3274 36.4674 93.3994 36.6354C93.4834 36.8034 93.5674 36.8874 93.6514 36.8874H91.0954ZM103.668 37.0674C102.42 37.0674 101.436 36.8754 100.716 36.4914C100.008 36.1074 99.51 35.5854 99.222 34.9254C98.934 34.2654 98.79 33.5214 98.79 32.6934C98.79 31.2294 99.186 30.1314 99.978 29.3994C100.782 28.6674 101.952 28.3014 103.488 28.3014C104.424 28.3014 105.21 28.3614 105.846 28.4814C106.482 28.6014 106.92 28.7154 107.16 28.8234V29.1834L107.52 30.7494C107.28 30.4974 106.824 30.2394 106.152 29.9754C105.48 29.6994 104.634 29.5614 103.614 29.5614C103.098 29.5614 102.606 29.6514 102.138 29.8314C101.682 29.9994 101.31 30.3114 101.022 30.7674C100.746 31.2234 100.608 31.8714 100.608 32.7114C100.608 33.5274 100.758 34.1634 101.058 34.6194C101.358 35.0634 101.772 35.3694 102.3 35.5374C102.828 35.7054 103.428 35.7894 104.1 35.7894C104.952 35.7894 105.654 35.6574 106.206 35.3934C106.77 35.1294 107.148 34.8714 107.34 34.6194V34.9794L107.52 36.2034C107.292 36.3954 106.842 36.5874 106.17 36.7794C105.51 36.9714 104.676 37.0674 103.668 37.0674ZM112.498 37.0674C111.19 37.0674 110.272 36.8334 109.744 36.3654C109.216 35.8854 108.952 35.2434 108.952 34.4394C108.952 33.5994 109.27 32.9394 109.906 32.4594C110.542 31.9794 111.514 31.7394 112.822 31.7394C113.758 31.7394 114.508 31.8354 115.072 32.0274C115.636 32.2074 116.014 32.3634 116.206 32.4954C116.194 31.4274 115.99 30.6714 115.594 30.2274C115.21 29.7714 114.526 29.5434 113.542 29.5434C112.834 29.5434 112.198 29.6274 111.634 29.7954C111.082 29.9514 110.638 30.1254 110.302 30.3174C109.966 30.4974 109.756 30.6294 109.672 30.7134V30.3534L109.492 29.0034C109.6 28.9554 109.834 28.8774 110.194 28.7694C110.554 28.6494 111.028 28.5414 111.616 28.4454C112.204 28.3374 112.894 28.2834 113.686 28.2834C115.198 28.2834 116.302 28.6074 116.998 29.2554C117.694 29.8914 118.042 30.8754 118.042 32.2074V35.8074C118.042 36.1434 118.078 36.3894 118.15 36.5454C118.234 36.6894 118.318 36.8034 118.402 36.8874H116.206V36.3474L116.242 36.0054L116.206 35.9874C115.81 36.3474 115.294 36.6174 114.658 36.7974C114.022 36.9774 113.302 37.0674 112.498 37.0674ZM113.092 35.7894C114.064 35.7894 114.826 35.6514 115.378 35.3754C115.93 35.0874 116.206 34.7274 116.206 34.2954C116.206 33.9354 115.966 33.6294 115.486 33.3774C115.018 33.1254 114.286 32.9994 113.29 32.9994C112.366 32.9994 111.712 33.1194 111.328 33.3594C110.956 33.5994 110.77 33.9594 110.77 34.4394C110.77 34.9074 110.95 35.2494 111.31 35.4654C111.682 35.6814 112.276 35.7894 113.092 35.7894ZM123.469 37.0674C122.641 37.0674 122.041 36.8934 121.669 36.5454C121.297 36.1854 121.111 35.6034 121.111 34.7994V29.7234H119.491V28.4634C120.043 28.4634 120.475 28.3974 120.787 28.2654C121.099 28.1214 121.321 27.8754 121.453 27.5274C121.585 27.1794 121.651 26.6934 121.651 26.0694H122.947V28.4634H126.385C126.301 28.5834 126.217 28.7634 126.133 29.0034C126.061 29.2314 126.025 29.4714 126.025 29.7234H122.947V34.5294C122.947 35.0814 123.049 35.4294 123.253 35.5734C123.457 35.7174 123.715 35.7894 124.027 35.7894C124.471 35.7894 124.873 35.6574 125.233 35.3934C125.593 35.1294 125.851 34.8714 126.007 34.6194V35.1774L126.187 36.2034C126.007 36.3954 125.683 36.5874 125.215 36.7794C124.747 36.9714 124.165 37.0674 123.469 37.0674ZM131.84 37.0674C130.64 37.0674 129.698 36.8754 129.014 36.4914C128.342 36.1074 127.868 35.5854 127.592 34.9254C127.328 34.2654 127.196 33.5214 127.196 32.6934C127.196 31.8534 127.334 31.1034 127.61 30.4434C127.898 29.7834 128.378 29.2614 129.05 28.8774C129.722 28.4814 130.652 28.2834 131.84 28.2834C133.028 28.2834 133.958 28.4814 134.63 28.8774C135.302 29.2614 135.776 29.7834 136.052 30.4434C136.34 31.1034 136.484 31.8534 136.484 32.6934C136.484 33.5214 136.346 34.2654 136.07 34.9254C135.806 35.5854 135.338 36.1074 134.666 36.4914C133.994 36.8754 133.052 37.0674 131.84 37.0674ZM131.84 35.7894C132.584 35.7894 133.16 35.6694 133.568 35.4294C133.976 35.1894 134.258 34.8414 134.414 34.3854C134.57 33.9174 134.648 33.3534 134.648 32.6934C134.648 32.0334 134.564 31.4694 134.396 31.0014C134.24 30.5334 133.958 30.1734 133.55 29.9214C133.154 29.6694 132.584 29.5434 131.84 29.5434C131.108 29.5434 130.538 29.6754 130.13 29.9394C129.722 30.1914 129.434 30.5574 129.266 31.0374C129.11 31.5054 129.032 32.0634 129.032 32.7114C129.032 33.3474 129.11 33.8994 129.266 34.3674C129.422 34.8234 129.704 35.1774 130.112 35.4294C130.52 35.6694 131.096 35.7894 131.84 35.7894ZM142.081 37.0674C140.941 37.0674 140.053 36.8754 139.417 36.4914C138.793 36.1074 138.355 35.5854 138.103 34.9254C137.863 34.2654 137.743 33.5214 137.743 32.6934C137.743 31.8534 137.863 31.1034 138.103 30.4434C138.355 29.7834 138.793 29.2614 139.417 28.8774C140.053 28.4814 140.941 28.2834 142.081 28.2834C142.801 28.2834 143.401 28.3794 143.881 28.5714C144.361 28.7634 144.739 29.0094 145.015 29.3094L145.051 29.2914L145.015 28.9494V25.5474C145.015 25.1634 144.973 24.8934 144.889 24.7374C144.817 24.5694 144.739 24.4794 144.655 24.4674H146.851V35.8074C146.851 36.1914 146.887 36.4674 146.959 36.6354C147.043 36.8034 147.127 36.8874 147.211 36.8874H145.015V36.3294L145.069 35.9874L145.015 35.9694C144.739 36.2814 144.361 36.5454 143.881 36.7614C143.401 36.9654 142.801 37.0674 142.081 37.0674ZM142.207 35.7894C142.819 35.7894 143.311 35.6994 143.683 35.5194C144.055 35.3274 144.337 35.0814 144.529 34.7814C144.721 34.4694 144.847 34.1334 144.907 33.7734C144.979 33.4134 145.015 33.0534 145.015 32.6934C145.015 32.3814 144.979 32.0454 144.907 31.6854C144.835 31.3134 144.703 30.9654 144.511 30.6414C144.319 30.3174 144.037 30.0534 143.665 29.8494C143.293 29.6454 142.807 29.5434 142.207 29.5434C141.199 29.5434 140.503 29.8314 140.119 30.4074C139.747 30.9834 139.561 31.7514 139.561 32.7114C139.561 33.3474 139.633 33.8994 139.777 34.3674C139.933 34.8234 140.203 35.1774 140.587 35.4294C140.971 35.6694 141.511 35.7894 142.207 35.7894ZM153.391 37.0674C152.191 37.0674 151.249 36.8754 150.565 36.4914C149.893 36.1074 149.419 35.5854 149.143 34.9254C148.879 34.2654 148.747 33.5214 148.747 32.6934C148.747 31.8534 148.885 31.1034 149.161 30.4434C149.449 29.7834 149.929 29.2614 150.601 28.8774C151.273 28.4814 152.203 28.2834 153.391 28.2834C154.579 28.2834 155.509 28.4814 156.181 28.8774C156.853 29.2614 157.327 29.7834 157.603 30.4434C157.891 31.1034 158.035 31.8534 158.035 32.6934C158.035 33.5214 157.897 34.2654 157.621 34.9254C157.357 35.5854 156.889 36.1074 156.217 36.4914C155.545 36.8754 154.603 37.0674 153.391 37.0674ZM153.391 35.7894C154.135 35.7894 154.711 35.6694 155.119 35.4294C155.527 35.1894 155.809 34.8414 155.965 34.3854C156.121 33.9174 156.199 33.3534 156.199 32.6934C156.199 32.0334 156.115 31.4694 155.947 31.0014C155.791 30.5334 155.509 30.1734 155.101 29.9214C154.705 29.6694 154.135 29.5434 153.391 29.5434C152.659 29.5434 152.089 29.6754 151.681 29.9394C151.273 30.1914 150.985 30.5574 150.817 31.0374C150.661 31.5054 150.583 32.0634 150.583 32.7114C150.583 33.3474 150.661 33.8994 150.817 34.3674C150.973 34.8234 151.255 35.1774 151.663 35.4294C152.071 35.6694 152.647 35.7894 153.391 35.7894Z" fill="white"/>
<defs>
<filter id="filter0_b" x="15.3908" y="7.97" width="29.3299" height="41.06" filterUnits="userSpaceOnUse" color-interpolation-filters="sRGB">
<feFlood flood-opacity="0" result="BackgroundImageFix"/>
<feGaussianBlur in="BackgroundImage" stdDeviation="2"/>
<feComposite in2="SourceAlpha" operator="in" result="effect1_backgroundBlur"/>
<feBlend mode="normal" in="SourceGraphic" in2="effect1_backgroundBlur" result="shape"/>
</filter>
<filter id="filter1_b" x="17.3299" y="14.81" width="24.8053" height="37.07" filterUnits="userSpaceOnUse" color-interpolation-filters="sRGB">
<feFlood flood-opacity="0" result="BackgroundImageFix"/>
<feGaussianBlur in="BackgroundImage" stdDeviation="2"/>
<feComposite in2="SourceAlpha" operator="in" result="effect1_backgroundBlur"/>
<feBlend mode="normal" in="SourceGraphic" in2="effect1_backgroundBlur" result="shape"/>
</filter>
</defs>
</svg>
